<?xml version="1.0" encoding="UTF-8"?>
<svg id="Livello_1" data-name="Livello 1" xmlns="http://www.w3.org/2000/svg" viewBox="0 0 499.26 119.84">
  <defs>
    <style>
      .cls-1 {
        fill: #fff;
      }

      .cls-2 {
        fill: #ffcd1c;
      }
    </style>
  </defs>
  <path class="cls-1" d="m171.2,83.86c-4.1-4.24-6.14-9.9-6.14-16.96V11.77c0-.38.13-.69.39-.96.26-.26.58-.39.96-.39h13.19c.38,0,.69.13.96.39.26.26.39.58.39.96v56.7c0,2.41.6,4.36,1.8,5.86,1.2,1.5,2.78,2.25,4.73,2.25s3.51-.75,4.68-2.25c1.16-1.5,1.75-3.46,1.75-5.86V11.77c0-.38.13-.69.39-.96.26-.26.58-.39.96-.39h13.19c.38,0,.69.13.96.39.26.26.39.58.39.96v55.12c0,7.06-2.05,12.72-6.14,16.96-4.1,4.25-9.49,6.37-16.17,6.37s-12.19-2.12-16.29-6.37Z"/>
  <path class="cls-1" d="m251.51,13.35c3.23,2.03,5.73,4.87,7.5,8.51,1.76,3.65,2.65,7.8,2.65,12.46,0,6.99-1.88,12.59-5.64,16.8-3.76,4.21-8.68,6.31-14.77,6.31h-8.45c-.38,0-.56.19-.56.56v29.98c0,.38-.13.7-.39.96s-.58.39-.96.39h-13.19c-.38,0-.7-.13-.96-.39-.26-.26-.39-.58-.39-.96V11.66c0-.38.13-.69.39-.96.26-.26.58-.39.96-.39h22.77c4.13,0,7.81,1.01,11.05,3.04Zm-7.95,28.91c1.47-1.84,2.2-4.38,2.2-7.61s-.73-5.9-2.2-7.78c-1.46-1.88-3.4-2.82-5.8-2.82h-4.96c-.38,0-.56.19-.56.56v19.84c0,.38.19.56.56.56h4.96c2.4,0,4.34-.92,5.8-2.76Z"/>
  <path class="cls-1" d="m304.38,10.42h13.08c.38,0,.69.13.96.39.26.26.39.58.39.96v76.2c0,.38-.13.7-.39.96s-.58.39-.96.39h-13.19c-.38,0-.7-.13-.96-.39-.26-.26-.39-.58-.39-.96v-50.61c0-.3-.08-.45-.23-.45s-.3.11-.45.34l-8.79,15.56c-.38.6-.68.9-.9.9s-.53-.3-.9-.9l-8.79-15.56c-.15-.23-.3-.34-.45-.34s-.23.15-.23.45v50.61c0,.38-.13.7-.39.96-.26.26-.58.39-.96.39h-13.19c-.38,0-.7-.13-.96-.39-.26-.26-.39-.58-.39-.96V11.77c0-.38.13-.69.39-.96.26-.26.58-.39.96-.39h12.96c.75,0,1.31.3,1.69.9l10.03,17.92c.23.3.45.3.68,0l9.69-17.92c.3-.6.86-.9,1.69-.9Z"/>
  <path class="cls-1" d="m326.52,88.93c-.26-.26-.39-.58-.39-.96V11.77c0-.38.13-.69.39-.96.26-.26.58-.39.96-.39h13.19c.38,0,.69.13.96.39.26.26.39.58.39.96v76.2c0,.38-.13.7-.39.96-.26.26-.58.39-.96.39h-13.19c-.38,0-.7-.13-.96-.39Z"/>
  <path class="cls-1" d="m382.43,10.82c.26-.26.58-.39.96-.39h13.08c.38,0,.69.13.96.39.26.26.39.58.39.96v76.2c0,.38-.13.7-.39.96-.26.26-.58.39-.96.39h-14.88c-.75,0-1.24-.38-1.46-1.13l-13.98-43.62c-.08-.23-.21-.32-.39-.28-.19.04-.28.17-.28.39l.11,43.28c0,.38-.13.7-.39.96s-.58.39-.96.39h-13.08c-.38,0-.7-.13-.96-.39-.26-.26-.39-.58-.39-.96V11.77c0-.38.13-.69.39-.96.26-.26.58-.39.96-.39h14.77c.75,0,1.24.38,1.47,1.13l14.09,43.62c.07.22.21.32.39.28.19-.04.28-.17.28-.39l-.11-43.28c0-.38.13-.69.39-.96Z"/>
  <path class="cls-1" d="m405.88,88.93c-.26-.26-.39-.58-.39-.96V11.77c0-.38.13-.69.39-.96.26-.26.58-.39.96-.39h20.4c6.84,0,12.32,1.99,16.46,5.97,4.13,3.98,6.2,9.28,6.2,15.89v35.17c0,6.61-2.07,11.91-6.2,15.89-4.13,3.98-9.62,5.97-16.46,5.97h-20.4c-.38,0-.7-.13-.96-.39Zm16.06-13.24l5.07-.11c2.03-.07,3.68-.94,4.96-2.59,1.28-1.65,1.95-3.83,2.03-6.54v-33.14c0-2.85-.64-5.11-1.92-6.76-1.28-1.65-3.01-2.48-5.19-2.48h-4.96c-.38,0-.56.19-.56.56v50.5c0,.38.19.56.56.56Z"/>
  <path class="cls-1" d="m465.67,87.63c-3.31-1.73-5.86-4.15-7.67-7.27-1.8-3.12-2.71-6.71-2.71-10.76v-3.27c0-.38.13-.69.39-.96s.58-.39.96-.39h12.96c.38,0,.69.13.96.39.26.26.39.58.39.96v2.48c0,2.33.6,4.21,1.8,5.64,1.2,1.43,2.71,2.14,4.51,2.14s3.31-.68,4.51-2.03c1.2-1.35,1.8-3.12,1.8-5.3s-.75-4.19-2.25-5.81c-1.5-1.62-4.44-4-8.79-7.16-3.76-2.71-6.8-5.11-9.13-7.21-2.33-2.1-4.32-4.7-5.97-7.78-1.65-3.08-2.48-6.65-2.48-10.71,0-6.39,1.99-11.5,5.97-15.33,3.98-3.83,9.24-5.75,15.78-5.75s11.93,1.99,15.95,5.97c4.02,3.98,6.03,9.21,6.03,15.67v2.71c0,.38-.13.7-.39.96-.26.26-.58.39-.96.39h-12.96c-.38,0-.7-.13-.96-.39-.26-.26-.39-.58-.39-.96v-3.04c0-2.33-.58-4.19-1.75-5.58-1.17-1.39-2.69-2.09-4.57-2.09s-3.27.66-4.4,1.97c-1.13,1.32-1.69,3.14-1.69,5.47s.71,4.25,2.14,5.97c1.43,1.73,4.25,4.13,8.45,7.21,4.66,3.46,8.17,6.26,10.54,8.4s4.21,4.51,5.52,7.1c1.31,2.59,1.97,5.69,1.97,9.3,0,6.61-2.03,11.87-6.09,15.78-4.06,3.91-9.39,5.86-16.01,5.86-4.36,0-8.19-.86-11.5-2.59Z"/>
  <path class="cls-2" d="m140.72,43.46c-2.87-6.58-8.2-12.42-15.41-16.89L82.51,0h-31.27v12.25L31.26,0H0v52.98c0,8.99,1.77,16.76,5.25,23.1,1.58,2.88,3.5,5.4,5.66,7.66,1.11,1.17,2.3,2.24,3.55,3.22,1.74,1.37,3.56,2.65,5.58,3.69.13.07.28.11.42.18l46.63,28.74h31.35v-30.39h8.52c7.7,0,14.16-1.44,19.72-4.4,5.53-2.88,9.75-6.87,12.54-11.86,2.88-5.07,4.34-10.67,4.34-16.65,0-4.13-.98-8.56-2.83-12.8Zm-61.59,9.52c0,7.98-1.66,14.86-4.94,20.44-3.25,5.54-7.76,9.75-13.41,12.54-5.75,2.83-12.27,4.27-19.4,4.27s-13.47-1.43-18.92-4.25c-5.35-2.77-9.59-6.95-12.6-12.43-3.06-5.55-4.6-12.47-4.6-20.57V5.26h22.63v47.72c0,4.69,1.09,8.51,3.24,11.36,2.32,3.08,5.98,4.64,10.87,4.64s8.55-1.54,11-4.57c2.32-2.87,3.49-6.71,3.49-11.44V5.26h22.63v47.72Z"/>
</svg>